<svg width="40" height="40" viewBox="0 0 40 40" fill="none" xmlns="http://www.w3.org/2000/svg">
<path d="M25.8166 16.05C25.5166 11.4 23.6333 6.86671 20.0999 3.33337C16.5333 6.90004 14.5666 11.4334 14.1833 16.05C16.3166 17.1834 18.2833 18.65 19.9999 20.4334C21.7166 18.6667 23.6833 17.2 25.8166 16.05ZM20.0833 8.65004C21.1333 10.3667 21.8666 12.2834 22.2499 14.2834C21.4666 14.7834 20.7333 15.3334 20.0166 15.9167C19.3166 15.35 18.5666 14.8 17.7999 14.3C18.2166 12.3 18.9833 10.3834 20.0833 8.65004ZM19.9999 25.75C18.6333 23.6667 16.8999 21.85 14.8999 20.4167C14.6833 20.2667 14.4499 20.15 14.2333 19.9834C14.4499 20.1334 14.6833 20.2667 14.8833 20.4C11.6333 18.05 7.64992 16.6667 3.33325 16.6667C3.33325 25.5334 8.93325 33.0334 16.7166 35.8167C17.7666 36.2 18.8666 36.4834 19.9999 36.6667C21.1333 36.4667 22.2166 36.1834 23.2833 35.8167C31.0666 33.0334 36.6666 25.5334 36.6666 16.6667C29.6999 16.6667 23.5833 20.2834 19.9999 25.75ZM22.1999 32.6667C21.4666 32.9167 20.7333 33.1167 19.9833 33.2834C19.2499 33.1334 18.5333 32.9334 17.8499 32.6834C12.3666 30.7167 8.34992 26.0334 7.09992 20.4334C8.93325 20.8667 10.6833 21.6167 12.2999 22.65L12.2666 22.6667C12.4833 22.8167 12.6999 22.9667 12.9166 23.0834L13.0333 23.15C14.6833 24.35 16.0999 25.8334 17.2166 27.5667L19.9999 31.8334L22.7833 27.5834C23.9333 25.8334 25.3666 24.3334 26.9999 23.15L27.1166 23.0667C27.2666 22.9834 27.4166 22.8834 27.5666 22.7834L27.5499 22.75C29.1833 21.6667 30.9999 20.8667 32.8999 20.4167C31.6499 26.0334 27.6499 30.7167 22.1999 32.6667ZM14.9833 20.4667C14.9499 20.45 14.9166 20.4167 14.8999 20.4C14.8999 20.4 14.9166 20.4 14.9166 20.4167C14.9333 20.4334 14.9499 20.45 14.9833 20.4667Z" fill="#DF836E"/>
</svg>
