<svg width="40" height="40" viewBox="0 0 40 40" fill="none" xmlns="http://www.w3.org/2000/svg">
<path d="M25.8166 16.05C25.5166 11.4 23.6333 6.86668 20.1 3.33334C16.5333 6.90001 14.5666 11.4333 14.1833 16.05C16.3166 17.1833 18.2833 18.65 20 20.4333C21.7166 18.6667 23.6833 17.2 25.8166 16.05ZM20.0833 8.65001C21.1333 10.3667 21.8666 12.2833 22.25 14.2833C21.4666 14.7833 20.7333 15.3333 20.0166 15.9167C19.3166 15.35 18.5666 14.8 17.8 14.3C18.2166 12.3 18.9833 10.3833 20.0833 8.65001ZM20 25.75C18.6333 23.6667 16.9 21.85 14.9 20.4167C14.6833 20.2667 14.45 20.15 14.2333 19.9833C14.45 20.1333 14.6833 20.2667 14.8833 20.4C11.6333 18.05 7.64998 16.6667 3.33331 16.6667C3.33331 25.5333 8.93331 33.0333 16.7166 35.8167C17.7666 36.2 18.8666 36.4833 20 36.6667C21.1333 36.4667 22.2166 36.1833 23.2833 35.8167C31.0666 33.0333 36.6666 25.5333 36.6666 16.6667C29.7 16.6667 23.5833 20.2833 20 25.75ZM22.2 32.6667C21.4666 32.9167 20.7333 33.1167 19.9833 33.2833C19.25 33.1333 18.5333 32.9333 17.85 32.6833C12.3666 30.7167 8.34998 26.0333 7.09998 20.4333C8.93331 20.8667 10.6833 21.6167 12.3 22.65L12.2666 22.6667C12.4833 22.8167 12.7 22.9667 12.9166 23.0833L13.0333 23.15C14.6833 24.35 16.1 25.8333 17.2166 27.5667L20 31.8333L22.7833 27.5833C23.9333 25.8333 25.3666 24.3333 27 23.15L27.1166 23.0667C27.2666 22.9833 27.4166 22.8833 27.5666 22.7833L27.55 22.75C29.1833 21.6667 31 20.8667 32.9 20.4167C31.65 26.0333 27.65 30.7167 22.2 32.6667ZM14.9833 20.4667C14.95 20.45 14.9166 20.4167 14.9 20.4C14.9 20.4 14.9166 20.4 14.9166 20.4167C14.9333 20.4333 14.95 20.45 14.9833 20.4667Z" fill="#FF69B4"/>
</svg>
