<svg width="41" height="40" viewBox="0 0 41 40" fill="none" xmlns="http://www.w3.org/2000/svg">
<path d="M17.4167 21.6667C17.4167 22.8167 16.4834 23.75 15.3334 23.75C14.1834 23.75 13.2501 22.8167 13.2501 21.6667C13.2501 20.5167 14.1834 19.5834 15.3334 19.5834C16.4834 19.5834 17.4167 20.5167 17.4167 21.6667ZM25.3334 19.5834C24.1834 19.5834 23.2501 20.5167 23.2501 21.6667C23.2501 22.8167 24.1834 23.75 25.3334 23.75C26.4834 23.75 27.4167 22.8167 27.4167 21.6667C27.4167 20.5167 26.4834 19.5834 25.3334 19.5834ZM37.0001 20C37.0001 29.2 29.5334 36.6667 20.3334 36.6667C11.1334 36.6667 3.66675 29.2 3.66675 20C3.66675 10.8 11.1334 3.33337 20.3334 3.33337C29.5334 3.33337 37.0001 10.8 37.0001 20ZM18.1001 6.86671C20.4334 10.7334 24.6667 13.3334 29.5001 13.3334C30.2667 13.3334 31.0168 13.25 31.7334 13.1334C29.4001 9.26671 25.1667 6.66671 20.3334 6.66671C19.5667 6.66671 18.8167 6.75004 18.1001 6.86671ZM7.70008 15.7834C10.5501 14.1667 12.7501 11.5334 13.8001 8.38337C10.9501 10 8.75008 12.6334 7.70008 15.7834ZM33.6667 20C33.6667 18.7 33.4667 17.45 33.1167 16.2667C31.9501 16.5167 30.7501 16.6667 29.5001 16.6667C24.2834 16.6667 19.6334 14.2667 16.5667 10.5167C14.8167 14.7834 11.3334 18.1334 7.00008 19.7667C7.01675 19.8334 7.00008 19.9167 7.00008 20C7.00008 27.35 12.9834 33.3334 20.3334 33.3334C27.6834 33.3334 33.6667 27.35 33.6667 20Z" fill="#DF836E"/>
</svg>
