<svg width="41" height="40" viewBox="0 0 41 40" fill="none" xmlns="http://www.w3.org/2000/svg">
<path d="M17.4167 21.6667C17.4167 22.8167 16.4834 23.75 15.3334 23.75C14.1834 23.75 13.25 22.8167 13.25 21.6667C13.25 20.5167 14.1834 19.5833 15.3334 19.5833C16.4834 19.5833 17.4167 20.5167 17.4167 21.6667ZM25.3334 19.5833C24.1834 19.5833 23.25 20.5167 23.25 21.6667C23.25 22.8167 24.1834 23.75 25.3334 23.75C26.4834 23.75 27.4167 22.8167 27.4167 21.6667C27.4167 20.5167 26.4834 19.5833 25.3334 19.5833ZM37 20C37 29.2 29.5334 36.6667 20.3334 36.6667C11.1334 36.6667 3.6667 29.2 3.6667 20C3.6667 10.8 11.1334 3.33334 20.3334 3.33334C29.5334 3.33334 37 10.8 37 20ZM18.1 6.86668C20.4334 10.7333 24.6667 13.3333 29.5 13.3333C30.2667 13.3333 31.0167 13.25 31.7334 13.1333C29.4 9.26668 25.1667 6.66668 20.3334 6.66668C19.5667 6.66668 18.8167 6.75001 18.1 6.86668ZM7.70004 15.7833C10.55 14.1667 12.75 11.5333 13.8 8.38334C10.95 10 8.75004 12.6333 7.70004 15.7833ZM33.6667 20C33.6667 18.7 33.4667 17.45 33.1167 16.2667C31.95 16.5167 30.75 16.6667 29.5 16.6667C24.2834 16.6667 19.6334 14.2667 16.5667 10.5167C14.8167 14.7833 11.3334 18.1333 7.00004 19.7667C7.0167 19.8333 7.00004 19.9167 7.00004 20C7.00004 27.35 12.9834 33.3333 20.3334 33.3333C27.6834 33.3333 33.6667 27.35 33.6667 20Z" fill="#FF69B4"/>
</svg>
