<svg width="52" height="52" viewBox="0 0 52 52" fill="none" xmlns="http://www.w3.org/2000/svg">
<rect x="0.5" y="0.5" width="51" height="51" rx="25.5" stroke="white" stroke-opacity="0.24"/>
<path d="M26.8572 17.668C27.7951 17.6695 28.2703 17.6745 28.681 17.6867L28.8427 17.692C29.0296 17.6986 29.2139 17.707 29.4362 17.7174C30.3229 17.7584 30.9278 17.8986 31.4591 18.1049C32.0083 18.3167 32.4722 18.6028 32.9354 19.066C33.3979 19.5292 33.6841 19.9945 33.8966 20.5424C34.1021 21.0729 34.2424 21.6785 34.2841 22.5653C34.294 22.7875 34.302 22.9719 34.3086 23.1587L34.3138 23.3205C34.326 23.7311 34.3316 24.2064 34.3333 25.1442L34.334 25.7657C34.3341 25.8416 34.3341 25.9199 34.3341 26.0007L34.334 26.2358L34.3335 26.8572C34.3319 27.7951 34.327 28.2703 34.3147 28.681L34.3094 28.8427C34.3028 29.0296 34.2945 29.2139 34.2841 29.4362C34.2431 30.3229 34.1021 30.9278 33.8966 31.4591C33.6847 32.0083 33.3979 32.4722 32.9354 32.9354C32.4722 33.3979 32.0062 33.6841 31.4591 33.8966C30.9278 34.1021 30.3229 34.2424 29.4362 34.2841C29.2139 34.294 29.0296 34.302 28.8427 34.3086L28.681 34.3138C28.2703 34.326 27.7951 34.3316 26.8572 34.3333L26.2358 34.334C26.1599 34.3341 26.0816 34.3341 26.0007 34.3341L25.7657 34.334L25.1442 34.3335C24.2064 34.3319 23.7311 34.327 23.3205 34.3147L23.1587 34.3094C22.9719 34.3028 22.7875 34.2945 22.5653 34.2841C21.6785 34.2431 21.0743 34.1021 20.5424 33.8966C19.9938 33.6847 19.5292 33.3979 19.066 32.9354C18.6028 32.4722 18.3174 32.0062 18.1049 31.4591C17.8986 30.9278 17.7591 30.3229 17.7174 29.4362C17.7075 29.2139 17.6994 29.0296 17.6929 28.8427L17.6876 28.681C17.6754 28.2703 17.6699 27.7951 17.6681 26.8572L17.668 25.1442C17.6695 24.2064 17.6745 23.7311 17.6867 23.3205L17.692 23.1587C17.6986 22.9719 17.707 22.7875 17.7174 22.5653C17.7584 21.6778 17.8986 21.0736 18.1049 20.5424C18.3167 19.9938 18.6028 19.5292 19.066 19.066C19.5292 18.6028 19.9945 18.3174 20.5424 18.1049C21.0736 17.8986 21.6778 17.7591 22.5653 17.7174C22.7875 17.7075 22.9719 17.6994 23.1587 17.6929L23.3205 17.6876C23.7311 17.6754 24.2064 17.6699 25.1442 17.6681L26.8572 17.668ZM26.0007 21.8341C23.6983 21.8341 21.8341 23.7003 21.8341 26.0007C21.8341 28.3032 23.7003 30.1674 26.0007 30.1674C28.3032 30.1674 30.1674 28.3011 30.1674 26.0007C30.1674 23.6983 28.3011 21.8341 26.0007 21.8341ZM26.0007 23.5007C27.3815 23.5007 28.5007 24.6196 28.5007 26.0007C28.5007 27.3815 27.3818 28.5007 26.0007 28.5007C24.62 28.5007 23.5007 27.3818 23.5007 26.0007C23.5007 24.62 24.6196 23.5007 26.0007 23.5007ZM30.3757 20.5841C29.8013 20.5841 29.3341 21.0506 29.3341 21.625C29.3341 22.1994 29.8007 22.6667 30.3757 22.6667C30.9501 22.6667 31.4174 22.2001 31.4174 21.625C31.4174 21.0506 30.9493 20.5833 30.3757 20.5841Z" fill="white"/>
</svg>
