<svg width="62" height="99" viewBox="0 0 62 99" fill="none" xmlns="http://www.w3.org/2000/svg">
<g clip-path="url(#clip0_6_1938)">
<path d="M1.66249 98.8272C1.24551 98.8272 0.893521 98.7349 0.606511 98.5441C0.319502 98.3537 0.113721 98.0925 0 97.7656L0.611927 97.4062C0.785217 97.8961 1.14263 98.1359 1.68415 98.1359C1.9495 98.1359 2.14987 98.0815 2.28525 97.9779C2.42063 97.8747 2.48561 97.7386 2.48561 97.5697C2.48561 97.4007 2.41521 97.2592 2.269 97.1669C2.12279 97.0742 1.86827 96.9706 1.50545 96.8619C1.30508 96.7857 1.13721 96.7258 1.00724 96.677C0.877275 96.6277 0.741893 96.5569 0.601098 96.4592C0.4603 96.361 0.351993 96.2414 0.281595 96.0943C0.211196 95.9473 0.178705 95.7784 0.178705 95.588C0.178705 95.2017 0.314087 94.8967 0.584853 94.6734C0.855617 94.4501 1.18053 94.3359 1.56502 94.3359C1.91159 94.3359 2.21485 94.4231 2.46937 94.5917C2.7293 94.7606 2.92967 94.9944 3.06505 95.2939L2.46937 95.6423C2.29067 95.2396 1.98741 95.0327 1.56502 95.0327C1.35924 95.0327 1.19678 95.0816 1.07223 95.1798C0.947674 95.2775 0.888108 95.4085 0.888108 95.5715C0.888108 95.735 0.953091 95.8546 1.07764 95.9473C1.20219 96.04 1.42963 96.1323 1.75997 96.2359C1.92242 96.2957 2.04156 96.3391 2.11196 96.372C2.18777 96.3993 2.29608 96.4427 2.43688 96.4916C2.57768 96.546 2.68057 96.6007 2.75096 96.6605C2.82136 96.7204 2.89718 96.7911 2.97299 96.8783C3.05422 96.9655 3.10837 97.0688 3.14086 97.1779C3.17335 97.292 3.1896 97.4172 3.1896 97.5587C3.1896 97.9509 3.0488 98.261 2.76721 98.4897C2.48561 98.7185 2.11738 98.8326 1.66249 98.8326V98.8272Z" fill="#FFECCF"/>
<path d="M9.02181 98.7455L8.71856 97.8747H6.88277L6.57951 98.7455H5.81055L7.37554 94.4067H8.22574L9.78533 98.7455H9.02181ZM7.1156 97.2049H8.48568L7.80334 95.2451L7.1156 97.2049Z" fill="#FFECCF"/>
<path d="M13.4245 98.0651H15.1844V98.7455H12.7205V94.4067H13.4299V98.0651H13.4245Z" fill="#FFECCF"/>
<path d="M21.5041 98.1689C21.0708 98.6041 20.5402 98.8219 19.9174 98.8219C19.2946 98.8219 18.7639 98.6041 18.3307 98.1689C17.8975 97.7333 17.6809 97.1996 17.6809 96.5736C17.6809 95.9475 17.8975 95.4142 18.3307 94.9786C18.7639 94.543 19.2946 94.3252 19.9174 94.3252C20.5402 94.3252 21.0708 94.543 21.5041 94.9786C21.9373 95.4142 22.1539 95.9475 22.1539 96.5736C22.1539 97.1996 21.9373 97.7333 21.5041 98.1689ZM18.8289 97.684C19.1214 97.9781 19.4842 98.1251 19.9174 98.1251C20.3506 98.1251 20.7135 97.9781 21.0059 97.684C21.2983 97.3904 21.4445 97.0201 21.4445 96.5736C21.4445 96.127 21.2983 95.7571 21.0059 95.4631C20.7135 95.169 20.3506 95.022 19.9174 95.022C19.4842 95.022 19.1214 95.169 18.8289 95.4631C18.5365 95.7571 18.3903 96.127 18.3903 96.5736C18.3903 97.0201 18.5365 97.3904 18.8289 97.684Z" fill="#FFECCF"/>
<path d="M27.8562 94.4067H28.5656V98.7455H28.0133L25.9771 95.8003V98.7455H25.2677V94.4067H25.8092L27.8562 97.3683V94.4067Z" fill="#FFECCF"/>
<path d="M39.4449 98.5278L38.8709 98.8602L38.4594 98.4137C38.1182 98.6858 37.7175 98.8219 37.2572 98.8219C36.7969 98.8219 36.4611 98.7077 36.185 98.479C35.9088 98.2502 35.7734 97.9401 35.7734 97.5479C35.7734 97.2867 35.8384 97.047 35.9683 96.8292C36.0983 96.6119 36.2879 96.4374 36.5315 96.3014C36.3691 96.0726 36.2824 95.8224 36.2824 95.5448C36.2824 95.1799 36.407 94.8859 36.6615 94.6571C36.916 94.4284 37.2247 94.3142 37.5929 94.3142C37.8908 94.3142 38.1561 94.3905 38.3944 94.5484C38.6327 94.7064 38.8114 94.9293 38.9251 95.2178L38.3186 95.5662C38.259 95.3923 38.167 95.2562 38.0424 95.158C37.9178 95.0603 37.7662 95.011 37.5984 95.011C37.4305 95.011 37.2788 95.0603 37.1651 95.1635C37.046 95.2671 36.9918 95.3977 36.9918 95.5608C36.9918 95.648 37.0081 95.7352 37.046 95.8224C37.0839 95.9096 37.1218 95.9799 37.1705 96.0292C37.2193 96.0836 37.2842 96.1543 37.3655 96.2415L38.4106 97.3904C38.5135 97.178 38.5839 96.9274 38.6327 96.6388L39.2338 96.9872C39.1579 97.3356 39.0388 97.6406 38.8763 97.9073L39.4341 98.5173L39.4449 98.5278ZM37.2951 98.1634C37.5713 98.1634 37.8095 98.0872 38.0099 97.9292L36.9485 96.7858C36.6452 96.9383 36.4936 97.178 36.4936 97.4991C36.4936 97.7004 36.564 97.8639 36.7048 97.9835C36.8456 98.1032 37.0406 98.1634 37.2951 98.1634Z" fill="#FFECCF"/>
<path d="M47.9251 98.8272C47.5083 98.8272 47.1564 98.7349 46.8691 98.5441C46.5821 98.3537 46.3764 98.0925 46.2629 97.7656L46.8745 97.4062C47.0479 97.8961 47.4053 98.1359 47.9469 98.1359C48.2121 98.1359 48.4128 98.0815 48.5481 97.9779C48.6834 97.8747 48.7483 97.7386 48.7483 97.5697C48.7483 97.4007 48.6779 97.2592 48.5317 97.1669C48.3855 97.0742 48.1308 96.9706 47.7681 96.8619C47.5678 96.7857 47.3998 96.7258 47.27 96.677C47.1401 96.6277 47.0048 96.5569 46.8636 96.4592C46.7229 96.361 46.6148 96.2414 46.5444 96.0943C46.474 95.9473 46.4413 95.7784 46.4413 95.588C46.4413 95.2017 46.5767 94.8967 46.8477 94.6734C47.1183 94.4501 47.4434 94.3359 47.8275 94.3359C48.1744 94.3359 48.4777 94.4231 48.732 94.5917C48.9921 94.7606 49.1924 94.9944 49.3277 95.2939L48.732 95.6423C48.5535 95.2396 48.2502 95.0327 47.8275 95.0327C47.6219 95.0327 47.4593 95.0816 47.3349 95.1798C47.2105 95.2775 47.151 95.4085 47.151 95.5715C47.151 95.735 47.2159 95.8546 47.3403 95.9473C47.4648 96.04 47.6922 96.1323 48.0228 96.2359C48.1853 96.2957 48.3043 96.3391 48.3746 96.372C48.4505 96.3993 48.559 96.4427 48.6997 96.4916C48.8405 96.546 48.9431 96.6007 49.0135 96.6605C49.0839 96.7204 49.1597 96.7911 49.2355 96.8783C49.3168 96.9655 49.3713 97.0688 49.4035 97.1779C49.4362 97.292 49.4521 97.4172 49.4521 97.5587C49.4521 97.9509 49.3114 98.261 49.0298 98.4897C48.7483 98.7185 48.3801 98.8326 47.9251 98.8326V98.8272Z" fill="#FFECCF"/>
<path d="M54.0934 94.4067C54.4993 94.4067 54.8407 94.5428 55.1113 94.815C55.3819 95.0871 55.5227 95.4245 55.5227 95.8332C55.5227 96.2414 55.3874 96.5734 55.1113 96.8455C54.8407 97.1177 54.4993 97.2592 54.0934 97.2592H53.2107V98.7455H52.501V94.4067H54.0934ZM54.0934 96.5898C54.3045 96.5898 54.4775 96.519 54.6132 96.3775C54.7485 96.2359 54.8189 96.056 54.8189 95.8332C54.8189 95.6099 54.754 95.4355 54.6132 95.2885C54.4775 95.1469 54.3045 95.0761 54.0934 95.0761H53.2107V96.5898H54.0934Z" fill="#FFECCF"/>
<path d="M60.9816 98.7455L60.6783 97.8747H58.8426L58.5393 98.7455H57.7701L59.3352 94.4067H60.1852L61.7448 98.7455H60.9816ZM59.0751 97.2049H60.4454L59.7629 95.2451L59.0751 97.2049Z" fill="#FFECCF"/>
<path d="M46.815 39.6333C49.5497 39.6333 51.8621 39.127 53.736 38.1307C55.6094 37.129 57.0391 35.8714 58.014 34.3688C58.9888 32.8554 59.5355 31.2003 59.644 29.3874C59.7575 27.58 59.4274 25.8705 58.6583 24.2645C57.8946 22.6639 56.6818 21.2757 55.0246 20.1052C53.6815 19.1579 52.0515 18.5046 50.1345 18.1562C50.0478 18.1344 49.9615 18.1181 49.8748 18.1072C49.5175 18.0473 49.1547 17.9928 48.7755 17.9548C50.6925 17.541 52.2522 16.806 53.454 15.7499C54.6563 14.6937 55.5067 13.496 56.0157 12.1513C56.5247 10.8121 56.6818 9.42922 56.4975 7.992C56.3081 6.55473 55.7665 5.25905 54.8675 4.08854C53.9685 2.91806 52.7176 1.949 51.1257 1.17593C49.5334 0.402866 47.5841 0.0163338 45.3044 0.0163338H32.0151C32.6541 0.0925515 33.239 0.206878 33.7589 0.353869C34.2841 0.506307 34.7282 0.773068 35.0856 1.14871C35.443 1.52436 35.7192 2.05244 35.9304 2.72751C36.1361 3.40803 36.239 4.32807 36.239 5.49859V34.1402C36.239 35.3106 36.1361 36.2361 35.9304 36.9112C35.7192 37.5863 35.4376 38.1198 35.0856 38.4955C34.7282 38.8711 34.2895 39.1324 33.7589 39.2849C33.239 39.4373 32.6541 39.5516 32.0151 39.6278H44.573V44.74H32.0151C32.6541 44.8162 33.239 44.9249 33.7589 45.0774C34.2841 45.2299 34.7282 45.4966 35.0856 45.8724C35.443 46.2477 35.7192 46.776 35.9304 47.4509C36.1361 48.1317 36.239 49.0518 36.239 50.2221V66.092C34.9827 66.5326 33.7101 66.745 32.4267 66.745C30.97 66.745 29.5566 66.4619 28.1757 65.9011C26.7894 65.3349 25.5547 64.4747 24.4554 63.3208C23.3507 62.1665 22.4734 60.7022 21.8236 58.9383C21.1683 57.1744 20.838 55.1165 20.838 52.7645V24.9396C20.838 23.878 20.9084 22.9742 21.0437 22.2393C21.5095 22.3645 21.9806 22.4625 22.4626 22.5224C23.8489 22.6966 25.2894 22.6095 26.7298 22.2121C28.1649 21.8146 29.4537 21.1504 30.5692 20.2794C31.7281 19.3811 32.6974 18.2596 33.4285 16.9911L33.7155 16.5012L33.2281 16.2181C31.9772 15.5049 30.5963 15.0312 29.1559 14.8462C27.7695 14.6665 26.3291 14.759 24.8886 15.1565C23.4536 15.5539 22.1647 16.2181 21.0492 17.0837C20.8434 17.2416 20.6485 17.4104 20.4643 17.5791C20.7784 17.0184 21.0492 16.4359 21.2875 15.8315C21.9373 14.1765 22.3001 12.3582 22.3001 10.4636C22.3001 8.56906 21.9373 6.75618 21.2875 5.09572C20.6159 3.38081 19.6195 1.82379 18.3849 0.506303L17.9029 0L17.4263 0.506303C16.1863 1.82379 15.1953 3.37536 14.5184 5.09572C13.8739 6.7507 13.5111 8.56363 13.5111 10.4636C13.5111 12.3636 13.8739 14.1765 14.5184 15.8315C14.7621 16.4359 15.0328 17.0184 15.3469 17.5791C15.1573 17.4104 14.957 17.2416 14.7621 17.0837C13.6465 16.2181 12.3468 15.5484 10.9172 15.1565C9.48213 14.759 8.04167 14.6665 6.65535 14.8462C5.20949 15.0312 3.83401 15.4994 2.58308 16.2181L2.0957 16.5012L2.38271 16.9911C3.11377 18.2596 4.07769 19.3811 5.23655 20.2794C6.35754 21.1504 7.65179 21.8201 9.08143 22.2121C10.5165 22.6095 11.9569 22.6966 13.3487 22.5224C13.8848 22.4516 14.4154 22.3427 14.9299 22.1903C15.0761 22.9362 15.1465 23.8507 15.1465 24.9396V52.7645C15.1465 55.3941 15.5689 57.7023 16.4137 59.6785C17.2531 61.6547 18.3795 63.3099 19.7874 64.6217C21.19 65.9395 22.8037 66.9303 24.6287 67.5888C26.4536 68.2422 28.3057 68.5741 30.1794 68.5741C32.053 68.5741 33.9592 68.2422 35.7679 67.5888C35.9304 67.529 36.0928 67.4691 36.2499 67.3984V78.8529C36.2499 80.0232 36.147 80.9487 35.9412 81.624C35.73 82.2989 35.4484 82.8327 35.0964 83.208C34.739 83.5838 34.3004 83.845 33.7697 83.9975C33.2498 84.15 32.665 84.2642 32.026 84.3349H56.6278V84.2806L58.2578 74.7151C58.1061 75.1726 57.8891 75.9022 57.6131 76.9255C57.3316 77.9438 56.8335 78.9616 56.1184 79.9798C55.4037 80.998 54.4125 81.8962 53.1348 82.6637C51.8567 83.4368 50.1345 83.8235 47.9578 83.8235H45.9323C44.7246 83.8235 43.7825 83.7797 43.0896 83.682C42.3963 83.5893 41.8763 83.3715 41.5352 83.034C41.1994 82.6911 40.9882 82.2172 40.8908 81.5912C40.7987 80.9706 40.75 80.1268 40.75 79.0707V64.4368C40.9883 64.219 41.2157 63.9793 41.4215 63.7345H48.1254C49.0244 63.7345 49.734 63.914 50.2648 64.2678C50.7897 64.6272 51.1961 65.0792 51.4776 65.629C51.7591 66.1733 51.9652 66.7504 52.0951 67.355C52.2249 67.9536 52.328 68.5253 52.4038 69.0481V57.8986C52.328 58.4264 52.2249 59.0036 52.0951 59.6241C51.9598 60.2447 51.7536 60.8218 51.4776 61.3501C51.1961 61.8779 50.7952 62.319 50.2648 62.6784C49.734 63.0432 49.0244 63.2172 48.1254 63.2172H41.8547C42.6887 62.183 43.3979 60.9962 43.9827 59.657C44.8494 57.6808 45.2608 55.3722 45.2122 52.7426V45.219H47.2808C49.4575 45.219 51.1852 45.6053 52.4633 46.3788C53.736 47.1518 54.7322 48.0445 55.4473 49.0627C56.1565 50.0805 56.6546 51.0987 56.9361 52.1166C57.223 53.1403 57.4401 53.8699 57.5863 54.327L55.9562 44.7071H45.2122V39.5952H46.8313L46.815 39.6333ZM44.5625 52.7754C44.5625 55.0781 44.2102 57.1036 43.5118 58.8456C42.8076 60.5825 41.8818 62.0469 40.7391 63.2227V45.2514H44.5679V52.7754H44.5625ZM50.8928 19.8765C52.1922 20.8946 53.1671 22.1794 53.8223 23.7201C54.4779 25.2717 54.808 26.9376 54.808 28.7287C54.808 30.5198 54.4938 32.1912 53.8767 33.7373C53.2592 35.2889 52.3225 36.5628 51.0662 37.5809C49.8044 38.6044 48.223 39.1161 46.3115 39.1161H45.8025C45.5913 39.1161 45.3857 39.1161 45.1959 39.1161V28.4783C45.1959 25.5656 45.6781 23.1593 46.642 21.2757C47.2268 20.1215 47.9306 19.2777 48.7429 18.7387C49.5443 18.9946 50.2648 19.3702 50.8982 19.8765H50.8928ZM44.5625 39.0998C43.9341 39.078 43.4088 39.0344 42.9811 38.9745C42.3095 38.882 41.8005 38.6642 41.4594 38.3267C41.1182 37.9892 40.9178 37.5101 40.842 36.884C40.7662 36.2634 40.7283 35.4195 40.7283 34.3634V18.5808C41.6706 19.098 42.4666 20.0017 43.1218 21.2702C44.0803 23.1539 44.5625 25.5602 44.5625 28.4728V39.0943V39.0998ZM40.7337 17.835V5.16102C40.7337 3.50058 40.8853 2.35187 41.1886 1.70401C41.4864 1.06705 42.2555 0.669628 43.4955 0.517193H45.353C46.8963 0.517193 48.1635 0.941835 49.1815 1.79112C50.1944 2.64041 50.9309 3.70745 51.4017 4.98682C51.873 6.27163 52.0951 7.66534 52.0787 9.17882C52.0569 10.6868 51.7863 12.0805 51.261 13.3653C50.7411 14.6501 49.9724 15.7172 48.9812 16.5611C47.9846 17.4104 46.7555 17.835 45.2989 17.835H40.7337Z" fill="#FFECCF"/>
</g>
<defs>
<clipPath id="clip0_6_1938">
<rect width="62" height="99" fill="white"/>
</clipPath>
</defs>
</svg>
