<svg width="154" height="89" viewBox="0 0 154 89" fill="none" xmlns="http://www.w3.org/2000/svg">
<g clip-path="url(#clip0_3_1895)">
<path d="M82.8257 19.9107C82.8364 20.6032 82.7305 21.2104 82.5023 21.7271C82.2741 22.2438 81.9769 22.6805 81.6055 23.0268C81.234 23.373 80.815 23.634 80.343 23.8045C79.8706 23.9749 79.3773 24.0654 78.8733 24.0654C78.3693 24.0654 77.8968 23.9802 77.4142 23.8045C76.9315 23.6287 76.5067 23.373 76.141 23.0268C75.7696 22.6805 75.4778 22.2491 75.2549 21.7271C75.0321 21.2104 74.9204 20.6032 74.9204 19.9107V12.608C74.9204 12.2245 74.8888 11.9209 74.8199 11.6971C74.7509 11.4735 74.6606 11.303 74.5441 11.1805C74.4271 11.058 74.2839 10.9727 74.109 10.9195C73.9338 10.8662 73.7482 10.8342 73.5356 10.8076H77.8016C77.5944 10.8342 77.4035 10.8715 77.2283 10.9195C77.0534 10.9674 76.9102 11.0527 76.7932 11.1805C76.6766 11.303 76.581 11.4788 76.5174 11.6971C76.4485 11.9209 76.4168 12.2245 76.4168 12.608V19.9107C76.4168 20.5286 76.5018 21.0719 76.6766 21.5353C76.8466 21.9987 77.0801 22.3823 77.3719 22.6859C77.6584 22.9895 77.9871 23.2132 78.3479 23.3624C78.7087 23.5115 79.0855 23.586 79.4676 23.586C79.8493 23.586 80.2474 23.5115 80.6295 23.3517C81.0112 23.1972 81.351 22.9682 81.6531 22.6593C81.9556 22.3503 82.1998 21.9668 82.3853 21.5087C82.5712 21.0506 82.6615 20.5179 82.6615 19.916V13.5402C82.6615 12.7731 82.5339 12.1446 82.2847 11.6492C82.0352 11.1538 81.6958 10.8769 81.2767 10.8129H84.1945C83.7861 10.8769 83.4573 11.1538 83.2078 11.6492C82.9583 12.1446 82.831 12.7731 82.831 13.5402V19.916L82.8257 19.9107Z" fill="#FFF8ED"/>
<path d="M94.6411 10.8076C94.2327 10.8715 93.9035 11.1485 93.6437 11.6439C93.3839 12.1392 93.2563 12.7678 93.2563 13.5348V24.0281H93.0921L86.5183 12.331V21.0613C86.5183 21.8283 86.6455 22.4568 86.8951 22.9522C87.1499 23.4476 87.4787 23.7245 87.8817 23.7885H84.964C85.383 23.7245 85.7171 23.4476 85.972 22.9522C86.2265 22.4568 86.3488 21.8283 86.3488 21.0613V13.3111C86.3488 12.5441 86.2371 11.9741 86.0089 11.596C85.7807 11.2177 85.436 10.9567 84.964 10.8076H87.4733L93.1077 20.747V13.5348C93.1077 12.7678 92.9805 12.1392 92.7207 11.6439C92.4605 11.1485 92.1317 10.8715 91.7229 10.8076H94.6411Z" fill="#FFF8ED"/>
<path d="M110.133 24.6354C109.396 25.2266 108.717 25.6474 108.091 25.8871C107.464 26.1268 106.876 26.2493 106.308 26.2493C105.629 26.2493 104.976 26.1215 104.35 25.8711C103.724 25.6154 103.093 25.3385 102.456 25.0348C101.819 24.7312 101.162 24.4489 100.483 24.1932C99.7981 23.9322 99.0659 23.799 98.2754 23.7831H95.7661C95.9729 23.7565 96.1638 23.7192 96.339 23.6712C96.5139 23.6233 96.6571 23.5381 96.7741 23.4102C96.8906 23.2877 96.9809 23.1119 97.0499 22.8935C97.1188 22.6698 97.1508 22.3662 97.1508 21.9827V12.6026C97.1508 12.2191 97.1188 11.9155 97.0499 11.6918C96.9809 11.468 96.8906 11.2976 96.7741 11.1751C96.6571 11.0526 96.5139 10.9674 96.339 10.9141C96.1638 10.8608 95.9782 10.8289 95.7661 10.8022H100.01C99.8141 10.8289 99.6282 10.8661 99.4587 10.9141C99.2888 10.962 99.1402 11.0472 99.0183 11.1751C98.8964 11.2976 98.8008 11.4734 98.7318 11.6918C98.6629 11.9155 98.6308 12.2191 98.6308 12.6026V22.8563C98.6308 23.0533 98.6046 23.2025 98.5565 23.2984C98.5089 23.3996 98.424 23.4688 98.3074 23.5114C98.1904 23.554 98.0209 23.5913 97.7981 23.6126C98.7478 23.6126 99.5912 23.7138 100.329 23.9162C101.066 24.1186 101.761 24.3424 102.408 24.5821C103.056 24.8217 103.692 25.0402 104.329 25.2425C104.966 25.4396 105.65 25.5408 106.388 25.5408C106.918 25.5408 107.486 25.4716 108.096 25.3385C108.706 25.2 109.385 24.9656 110.138 24.6354H110.133Z" fill="#FFF8ED"/>
<path d="M104.133 21.9881C104.133 22.3716 104.165 22.6752 104.234 22.8989C104.303 23.1226 104.398 23.2931 104.52 23.4156C104.642 23.5381 104.791 23.6233 104.96 23.6766C105.13 23.7299 105.316 23.7618 105.512 23.7885H101.268C101.475 23.7618 101.666 23.7245 101.841 23.6766C102.016 23.6287 102.159 23.5434 102.276 23.4156C102.392 23.2931 102.483 23.1173 102.552 22.8989C102.621 22.6752 102.653 22.3716 102.653 21.9881V12.608C102.653 12.2245 102.621 11.9209 102.552 11.6971C102.483 11.4734 102.392 11.303 102.276 11.1805C102.159 11.058 102.016 10.9727 101.841 10.9195C101.666 10.8662 101.48 10.8342 101.268 10.8076H105.512C105.316 10.8342 105.13 10.8715 104.96 10.9195C104.791 10.9674 104.642 11.0526 104.52 11.1805C104.398 11.303 104.303 11.4788 104.234 11.6971C104.165 11.9209 104.133 12.2245 104.133 12.608V21.9881Z" fill="#FFF8ED"/>
<path d="M115.455 12.7518L112.224 24.0069H112.075L108.197 12.5494V21.0613C108.197 21.8283 108.324 22.4568 108.584 22.9522C108.844 23.4476 109.173 23.7245 109.581 23.7885H106.663C107.072 23.7245 107.401 23.4476 107.661 22.9522C107.921 22.4568 108.048 21.8283 108.048 21.0613V12.608C108.048 12.2245 108.017 11.9209 107.948 11.6971C107.879 11.4734 107.783 11.303 107.661 11.1805C107.539 11.058 107.396 10.9727 107.226 10.9195C107.056 10.8662 106.87 10.8342 106.663 10.8076H109.083L112.722 21.7484L115.863 10.8076H118.319C118.107 10.8342 117.922 10.8715 117.747 10.9195C117.572 10.9674 117.428 11.0526 117.311 11.1805C117.195 11.303 117.105 11.4788 117.036 11.6971C116.967 11.9209 116.935 12.2245 116.935 12.608V21.9881C116.935 22.3716 116.967 22.6752 117.036 22.8989C117.105 23.1226 117.195 23.2931 117.311 23.4156C117.428 23.5381 117.572 23.6233 117.747 23.6766C117.916 23.7245 118.107 23.7618 118.319 23.7885H114.075C114.282 23.7618 114.473 23.7245 114.638 23.6766C114.802 23.6287 114.945 23.5434 115.073 23.4156C115.2 23.2877 115.29 23.1173 115.359 22.8989C115.428 22.6752 115.46 22.3716 115.46 21.9881V12.7571L115.455 12.7518Z" fill="#FFF8ED"/>
<path d="M122.283 21.9881C122.283 22.3716 122.315 22.6752 122.384 22.8989C122.453 23.1226 122.548 23.2931 122.67 23.4156C122.792 23.5381 122.941 23.6233 123.111 23.6766C123.28 23.7299 123.466 23.7618 123.662 23.7885H119.418C119.625 23.7618 119.816 23.7245 119.991 23.6766C120.166 23.6287 120.309 23.5434 120.426 23.4156C120.543 23.2931 120.633 23.1173 120.702 22.8989C120.771 22.6752 120.803 22.3716 120.803 21.9881V12.608C120.803 12.2245 120.771 11.9209 120.702 11.6971C120.633 11.4734 120.543 11.303 120.426 11.1805C120.309 11.058 120.166 10.9727 119.991 10.9195C119.816 10.8662 119.63 10.8342 119.418 10.8076H123.662C123.466 10.8342 123.28 10.8715 123.111 10.9195C122.941 10.9674 122.792 11.0526 122.67 11.1805C122.548 11.303 122.453 11.4788 122.384 11.6971C122.315 11.9209 122.283 12.2245 122.283 12.608V21.9881Z" fill="#FFF8ED"/>
<path d="M129.414 21.9881C129.414 22.3716 129.445 22.6752 129.514 22.8989C129.583 23.1226 129.674 23.2931 129.79 23.4156C129.907 23.5381 130.05 23.6233 130.225 23.6766C130.4 23.7299 130.581 23.7618 130.777 23.7885H126.527C126.734 23.7618 126.925 23.7245 127.1 23.6766C127.275 23.6287 127.419 23.5434 127.535 23.4156C127.652 23.2931 127.742 23.1173 127.811 22.8989C127.88 22.6752 127.912 22.3716 127.912 21.9881V10.9781H127.896C127.18 10.9781 126.617 11.1059 126.198 11.3563C125.779 11.6119 125.456 11.9049 125.222 12.2351C124.989 12.5707 124.824 12.901 124.734 13.2366C124.644 13.5721 124.569 13.8118 124.522 13.961L125.058 10.8076H132.257L132.809 13.961C132.761 13.8118 132.687 13.5721 132.586 13.2366C132.485 12.901 132.326 12.5707 132.098 12.2351C131.87 11.8996 131.546 11.6066 131.122 11.3563C130.698 11.1059 130.135 10.9781 129.435 10.9781H129.414V21.9881Z" fill="#FFF8ED"/>
<path d="M141.712 23.7672V23.7885H133.642C133.849 23.7618 134.04 23.7245 134.215 23.6766C134.39 23.6287 134.533 23.5434 134.65 23.4156C134.767 23.2931 134.857 23.1173 134.926 22.8989C134.995 22.6752 135.027 22.3716 135.027 21.9881V12.608C135.027 12.2245 134.995 11.9209 134.926 11.6971C134.857 11.4734 134.767 11.303 134.65 11.1805C134.533 11.058 134.39 10.9727 134.215 10.9195C134.04 10.8662 133.854 10.8342 133.642 10.8076H141.489L142.025 13.961C141.977 13.8118 141.903 13.5721 141.812 13.2366C141.722 12.901 141.558 12.5707 141.324 12.2351C141.091 11.8996 140.762 11.6066 140.348 11.3563C139.929 11.1059 139.361 10.9781 138.65 10.9781H136.507V16.8746H138.926C139.223 16.8746 139.457 16.816 139.627 16.6988C139.796 16.5816 139.929 16.4378 140.025 16.262C140.115 16.0916 140.184 15.8998 140.226 15.6974C140.269 15.495 140.3 15.3033 140.327 15.1328V18.7868C140.3 18.6164 140.269 18.4299 140.226 18.2328C140.184 18.0358 140.115 17.8493 140.025 17.6682C139.934 17.4871 139.802 17.3433 139.627 17.2261C139.452 17.1089 139.218 17.0504 138.926 17.0504H136.507V22.0733C136.507 22.4195 136.523 22.6965 136.555 22.8989C136.587 23.1013 136.656 23.2611 136.767 23.373C136.879 23.4849 137.048 23.5541 137.276 23.586C137.504 23.618 137.818 23.634 138.21 23.634H138.873C139.589 23.634 140.152 23.5062 140.571 23.2558C140.99 23.0054 141.314 22.7072 141.547 22.3769C141.781 22.0414 141.945 21.7111 142.035 21.3755C142.126 21.04 142.2 20.8002 142.247 20.6511L141.712 23.7831V23.7672Z" fill="#FFF8ED"/>
<path d="M147.75 10.8076C148.758 10.8076 149.638 10.994 150.392 11.3615C151.145 11.729 151.766 12.2191 152.264 12.8263C152.763 13.4336 153.14 14.126 153.389 14.9037C153.638 15.6814 153.766 16.475 153.766 17.2847C153.766 18.0943 153.638 18.888 153.389 19.6656C153.134 20.4433 152.763 21.1411 152.264 21.7536C151.766 22.3662 151.14 22.8563 150.392 23.2291C149.643 23.602 148.763 23.7831 147.75 23.7831H143.356C143.563 23.7565 143.755 23.7192 143.929 23.6712C144.105 23.6233 144.248 23.5381 144.364 23.4102C144.481 23.2877 144.571 23.1119 144.64 22.8935C144.709 22.6698 144.741 22.3662 144.741 21.9827V12.6026C144.741 12.2191 144.709 11.9155 144.64 11.6918C144.571 11.468 144.481 11.2976 144.364 11.1751C144.248 11.0526 144.105 10.9674 143.929 10.9141C143.755 10.8608 143.569 10.8289 143.356 10.8022H147.75V10.8076ZM146.216 22.0626C146.216 22.3982 146.232 22.6645 146.264 22.8616C146.296 23.0586 146.359 23.2131 146.46 23.325C146.561 23.4369 146.71 23.5114 146.922 23.554C147.129 23.5967 147.41 23.618 147.755 23.618C148.481 23.618 149.118 23.4422 149.665 23.0906C150.211 22.7391 150.673 22.2703 151.039 21.6844C151.41 21.0985 151.686 20.4327 151.872 19.6923C152.057 18.9519 152.153 18.1848 152.169 17.4019C152.179 16.6188 152.1 15.8465 151.93 15.0955C151.76 14.3444 151.495 13.6626 151.134 13.066C150.779 12.4694 150.333 11.9794 149.803 11.6012C149.272 11.223 148.651 11.0153 147.935 10.978C147.542 10.978 147.23 10.994 147.001 11.0259C146.773 11.0579 146.603 11.1272 146.487 11.239C146.37 11.3509 146.296 11.5053 146.264 11.7131C146.232 11.9155 146.216 12.1925 146.216 12.5387V22.0679V22.0626Z" fill="#FFF8ED"/>
<path d="M79.0378 34.5373C79.8599 34.6225 80.5445 34.8568 81.0855 35.2404C81.6268 35.6238 82.0245 36.0766 82.2794 36.604C82.5339 37.1313 82.6402 37.6906 82.6028 38.2818C82.5659 38.8731 82.3853 39.4164 82.0672 39.9117C81.7487 40.4071 81.2767 40.8173 80.6611 41.1475C80.0459 41.4724 79.287 41.6377 78.3902 41.6377H73.5356C73.7429 41.6109 73.9338 41.5738 74.109 41.5256C74.2839 41.4778 74.4271 41.3925 74.5441 41.2647C74.6606 41.1422 74.7509 40.9664 74.8199 40.748C74.8888 40.5243 74.9204 40.2207 74.9204 39.8372V30.4571C74.9204 30.0736 74.8888 29.77 74.8199 29.5463C74.7509 29.3225 74.6606 29.1521 74.5441 29.0296C74.4271 28.9071 74.2839 28.8219 74.109 28.7686C73.9338 28.7153 73.7482 28.6834 73.5356 28.6567H77.8915C78.6451 28.6567 79.2816 28.7846 79.8016 29.0349C80.3217 29.2853 80.7354 29.6048 81.0272 29.9884C81.3243 30.3719 81.4996 30.798 81.5632 31.2667C81.6268 31.7355 81.5739 32.1936 81.404 32.6304C81.2394 33.0671 80.9582 33.4613 80.5655 33.8075C80.1731 34.1537 79.6584 34.3935 79.0325 34.5319L79.0378 34.5373ZM76.3955 34.5H77.8915C78.3746 34.5 78.7776 34.3615 79.1015 34.0845C79.4249 33.8075 79.6744 33.456 79.8493 33.0352C80.0245 32.6144 80.1095 32.1563 80.1148 31.6609C80.1201 31.1656 80.0459 30.7075 79.8919 30.2867C79.738 29.8659 79.4938 29.5196 79.1597 29.2373C78.8252 28.9603 78.4062 28.8219 77.9022 28.8219H77.2923C76.8835 28.8698 76.6344 29.003 76.5334 29.2107C76.4324 29.4184 76.3848 29.7966 76.3848 30.3399V34.4946L76.3955 34.5ZM76.3955 39.9117C76.3955 40.258 76.4062 40.535 76.4324 40.7374C76.4591 40.9398 76.5227 41.0996 76.6344 41.2114C76.7456 41.3232 76.9102 41.3925 77.133 41.4246C77.3559 41.4563 77.6633 41.4724 78.0561 41.4724H78.2207C78.8466 41.4724 79.3666 41.3071 79.7803 40.9717C80.1944 40.6362 80.5018 40.2154 80.7038 39.7094C80.9053 39.2033 81.0058 38.6547 81.0058 38.0688C81.0058 37.4828 80.9 36.9342 80.6824 36.4282C80.4649 35.9222 80.1464 35.5014 79.722 35.1658C79.2976 34.8302 78.767 34.6651 78.1251 34.6651H76.3902V39.9117H76.3955Z" fill="#FFF8ED"/>
<path d="M91.5214 41.6163V41.6377H83.452C83.6588 41.6109 83.8497 41.5738 84.0249 41.5256C84.1998 41.4778 84.343 41.3925 84.46 41.2647C84.5765 41.1422 84.6668 40.9664 84.7358 40.748C84.8047 40.5243 84.8363 40.2207 84.8363 39.8372V30.4571C84.8363 30.0736 84.8047 29.77 84.7358 29.5463C84.6668 29.3225 84.5765 29.1521 84.46 29.0296C84.343 28.9071 84.1998 28.8219 84.0249 28.7686C83.8497 28.7153 83.6642 28.6834 83.452 28.6567H91.2985L91.8345 31.81C91.7869 31.6609 91.7127 31.4212 91.6224 31.0856C91.5321 30.7501 91.3675 30.4198 91.1344 30.0842C90.9008 29.7486 90.5717 29.4557 90.1579 29.2053C89.7389 28.955 89.1713 28.8272 88.46 28.8272H86.3168V34.7237H88.7362C89.0334 34.7237 89.2665 34.6651 89.4364 34.5479C89.6063 34.4307 89.7389 34.2869 89.8345 34.1111C89.9244 33.9407 89.9934 33.7489 90.0361 33.5465C90.0783 33.3441 90.1103 33.1523 90.1366 32.9819V36.6359C90.1103 36.4655 90.0783 36.279 90.0361 36.0819C89.9934 35.8849 89.9244 35.6985 89.8345 35.5173C89.7442 35.3362 89.6117 35.1924 89.4364 35.0752C89.2612 34.9581 89.028 34.8995 88.7362 34.8995H86.3168V39.9224C86.3168 40.2687 86.3328 40.5456 86.3644 40.748C86.3964 40.9504 86.4653 41.1102 86.5766 41.2222C86.6882 41.3339 86.8581 41.4032 87.0859 41.4353C87.3141 41.4671 87.6272 41.4831 88.02 41.4831H88.6829C89.3995 41.4831 89.9618 41.3554 90.3808 41.1049C90.7999 40.8546 91.1237 40.5563 91.3572 40.226C91.5903 39.8905 91.7549 39.5602 91.8452 39.2246C91.9355 38.8891 92.0098 38.6494 92.0574 38.5002L91.5214 41.6323V41.6163Z" fill="#FFF8ED"/>
<path d="M109.804 43.3585C109.422 43.4702 109.014 43.5608 108.579 43.6247C108.144 43.694 107.687 43.7257 107.221 43.7257C106.467 43.7257 105.703 43.6247 104.923 43.4223C104.143 43.22 103.39 42.8737 102.669 42.3944C101.947 41.915 101.284 41.2703 100.684 40.466C100.079 39.6617 99.5966 38.655 99.2251 37.4459H95.1611L94.811 38.5591C94.5881 39.2782 94.4609 39.8375 94.4342 40.237C94.4026 40.6365 94.4449 40.9401 94.5561 41.1372C94.6678 41.3342 94.8426 41.462 95.0815 41.5152C95.3203 41.5688 95.5961 41.6112 95.904 41.638H91.9725C92.3546 41.6005 92.6727 41.542 92.9222 41.462C93.1717 41.3821 93.3942 41.2328 93.5855 41.0093C93.7763 40.7856 93.9569 40.4713 94.1317 40.0559C94.307 39.6404 94.5032 39.0865 94.7207 38.394L97.8404 28.4014H97.9307L100.663 37.0197C101.072 38.3034 101.565 39.3634 102.149 40.1997C102.732 41.0359 103.363 41.6965 104.032 42.1813C104.7 42.666 105.39 43.0069 106.09 43.2039C106.791 43.3955 107.449 43.4916 108.064 43.4916C108.383 43.4916 108.69 43.4702 108.976 43.4277C109.263 43.3848 109.534 43.3317 109.778 43.2678L109.799 43.3585H109.804ZM95.214 37.2754H99.1829L97.2251 30.8036L95.214 37.2754Z" fill="#FFF8ED"/>
<path d="M112.165 37.7598C112.176 38.4523 112.07 39.0595 111.842 39.5762C111.613 40.0929 111.316 40.5296 110.945 40.8759C110.573 41.2222 110.154 41.4831 109.682 41.6534C109.21 41.824 108.717 41.9147 108.213 41.9147C107.709 41.9147 107.236 41.8294 106.754 41.6534C106.271 41.4778 105.847 41.2222 105.48 40.8759C105.109 40.5296 104.817 40.0982 104.594 39.5762C104.371 39.0595 104.26 38.4523 104.26 37.7598V30.4571C104.26 30.0736 104.228 29.77 104.159 29.5463C104.09 29.3225 104 29.1521 103.883 29.0296C103.767 28.9071 103.623 28.8219 103.448 28.7686C103.273 28.7153 103.088 28.6834 102.875 28.6567H107.141C106.934 28.6834 106.743 28.7207 106.568 28.7686C106.393 28.8165 106.25 28.9017 106.133 29.0296C106.016 29.1521 105.921 29.3279 105.857 29.5463C105.788 29.77 105.756 30.0736 105.756 30.4571V37.7598C105.756 38.3777 105.841 38.921 106.016 39.3844C106.186 39.8479 106.42 40.2314 106.711 40.535C106.998 40.8386 107.327 41.0623 107.687 41.2114C108.048 41.3607 108.425 41.4353 108.807 41.4353C109.189 41.4353 109.587 41.3607 109.969 41.2008C110.351 41.0463 110.69 40.8173 110.993 40.5083C111.295 40.1994 111.539 39.8159 111.725 39.3578C111.911 38.8997 112.001 38.3671 112.001 37.7652V31.3892C112.001 30.6222 111.873 29.9937 111.624 29.4983C111.375 29.003 111.035 28.726 110.616 28.6621H113.534C113.126 28.726 112.797 29.003 112.547 29.4983C112.298 29.9937 112.17 30.6222 112.17 31.3892V37.7652L112.165 37.7598Z" fill="#FFF8ED"/>
<path d="M119.275 39.8372C119.275 40.2207 119.307 40.5243 119.376 40.748C119.444 40.9717 119.535 41.1422 119.651 41.2647C119.768 41.3871 119.912 41.4724 120.086 41.5256C120.262 41.5792 120.442 41.6109 120.638 41.6377H116.388C116.595 41.6109 116.787 41.5738 116.961 41.5256C117.137 41.4778 117.28 41.3925 117.396 41.2647C117.513 41.1422 117.603 40.9664 117.672 40.748C117.742 40.5243 117.773 40.2207 117.773 39.8372V28.8272H117.757C117.041 28.8272 116.479 28.955 116.06 29.2053C115.641 29.461 115.317 29.754 115.083 30.0842C114.85 30.4198 114.686 30.7501 114.595 31.0856C114.505 31.4212 114.431 31.6609 114.383 31.81L114.919 28.6567H122.118L122.67 31.81C122.622 31.6609 122.548 31.4212 122.448 31.0856C122.347 30.7501 122.187 30.4198 121.959 30.0842C121.731 29.7486 121.408 29.4557 120.983 29.2053C120.559 28.955 119.996 28.8272 119.296 28.8272H119.275V39.8372Z" fill="#FFF8ED"/>
<path d="M128.692 39.1341C128.692 39.9012 128.803 40.4711 129.032 40.8493C129.26 41.2276 129.605 41.4886 130.077 41.6378H125.811C126.278 41.4886 126.628 41.2276 126.856 40.8493C127.085 40.4711 127.196 39.9012 127.196 39.1341V36.6147L125.053 31.1283C124.877 30.6862 124.718 30.308 124.575 29.9991C124.432 29.6901 124.272 29.4398 124.114 29.248C123.954 29.0563 123.774 28.9125 123.577 28.8219C123.381 28.7314 123.142 28.6781 122.856 28.6621H127.159C126.57 28.6887 126.225 28.8432 126.135 29.1255C126.045 29.4078 126.103 29.8286 126.31 30.3879L128.618 36.4495L130.724 30.9419C131.021 30.1642 131.133 29.5943 131.058 29.2374C130.984 28.8805 130.607 28.6887 129.933 28.6621H133.239C132.958 28.6887 132.708 28.742 132.491 28.8219C132.273 28.9018 132.077 29.0296 131.902 29.2001C131.722 29.3759 131.557 29.5996 131.403 29.8766C131.249 30.1535 131.085 30.5104 130.915 30.9419L128.697 36.6307V39.1341H128.692Z" fill="#FFF8ED"/>
<path d="M81.6055 59.4661V59.4871H73.5356C73.7429 59.4607 73.9338 59.4232 74.109 59.3754C74.2839 59.3276 74.4271 59.2423 74.5441 59.1145C74.6606 58.9921 74.7509 58.8161 74.8199 58.5976C74.8888 58.3742 74.9204 58.0704 74.9204 57.6871V48.3067C74.9204 47.9234 74.8888 47.6196 74.8199 47.3958C74.7509 47.1724 74.6606 47.0018 74.5441 46.8794C74.4271 46.757 74.2839 46.6716 74.109 46.6185C73.9338 46.5649 73.7482 46.5331 73.5356 46.5063H81.3826L81.9186 49.6599C81.8706 49.5107 81.7963 49.2708 81.7064 48.9353C81.6161 48.5998 81.4516 48.2696 81.218 47.9341C80.9849 47.5982 80.6557 47.3056 80.242 47.055C79.823 46.8048 79.2554 46.677 78.5441 46.677H76.4008V52.5736H78.8203C79.1171 52.5736 79.3506 52.5147 79.5205 52.3976C79.6904 52.2806 79.823 52.1367 79.9182 51.9607C80.0085 51.7905 80.0775 51.5988 80.1201 51.3964C80.1624 51.1937 80.1944 51.002 80.2207 50.8318V54.4857C80.1944 54.3151 80.1624 54.1288 80.1201 53.9318C80.0775 53.7347 80.0085 53.548 79.9182 53.3671C79.8283 53.1861 79.6953 53.0423 79.5205 52.9248C79.3453 52.8077 79.1121 52.7492 78.8203 52.7492H76.4008V57.772C76.4008 58.1183 76.4168 58.3952 76.4485 58.5976C76.4805 58.8 76.5494 58.9599 76.6606 59.072C76.7723 59.1837 76.9418 59.253 77.17 59.2847C77.3982 59.3169 77.7113 59.333 78.1037 59.333H78.767C79.4832 59.333 80.0458 59.2052 80.4649 58.9546C80.8839 58.7044 81.2078 58.406 81.4409 58.0758C81.6744 57.7403 81.839 57.4101 81.9293 57.0742C82.0192 56.7387 82.0935 56.4992 82.1415 56.35L81.6055 59.4822V59.4661Z" fill="#FFF8ED"/>
<path d="M92.0574 48.456L88.8265 59.7109H88.6779L84.7994 48.2536V56.7655C84.7994 57.5326 84.9266 58.1611 85.1869 58.6562C85.4467 59.1516 85.7758 59.4286 86.1842 59.4925H83.2661C83.6748 59.4286 84.0036 59.1516 84.2634 58.6562C84.5236 58.1611 84.6508 57.5326 84.6508 56.7655V48.3121C84.6508 47.9288 84.6192 47.625 84.5503 47.4012C84.4809 47.1778 84.3857 47.0072 84.2634 46.8847C84.1415 46.7623 83.9983 46.677 83.8283 46.6238C83.6588 46.5702 83.4729 46.5385 83.2661 46.5117H85.6855L89.3252 57.4526L92.4658 46.5117H94.9222C94.71 46.5385 94.5245 46.5756 94.3492 46.6238C94.1744 46.6716 94.0312 46.757 93.9142 46.8847C93.7976 47.0072 93.7073 47.1827 93.6384 47.4012C93.5694 47.625 93.5374 47.9288 93.5374 48.3121V57.6921C93.5374 58.0758 93.5694 58.3796 93.6384 58.603C93.7073 58.8268 93.7976 58.9975 93.9142 59.1199C94.0312 59.2423 94.1744 59.3276 94.3492 59.3808C94.5192 59.4286 94.71 59.4661 94.9222 59.4925H90.678C90.8848 59.4661 91.0757 59.4286 91.2403 59.3808C91.4048 59.333 91.5481 59.2477 91.6753 59.1199C91.8025 58.9921 91.8928 58.8215 91.9618 58.603C92.0307 58.3796 92.0628 58.0758 92.0628 57.6921V48.4613L92.0574 48.456Z" fill="#FFF8ED"/>
<path d="M98.8911 57.6871C98.8911 58.0704 98.9227 58.3742 98.9916 58.5976C99.0606 58.8214 99.1562 58.9921 99.2781 59.1145C99.4004 59.2369 99.5486 59.3222 99.7185 59.3754C99.8884 59.4286 100.074 59.4607 100.271 59.4871H96.0259C96.2327 59.4607 96.424 59.4232 96.5988 59.3754C96.7741 59.3276 96.9173 59.2423 97.0339 59.1145C97.1509 58.9921 97.2407 58.8161 97.3097 58.5976C97.3787 58.3742 97.4107 58.0704 97.4107 57.6871V48.3067C97.4107 47.9234 97.3787 47.6196 97.3097 47.3958C97.2407 47.1724 97.1509 47.0018 97.0339 46.8794C96.9173 46.757 96.7741 46.6716 96.5988 46.6185C96.424 46.5649 96.2381 46.5331 96.0259 46.5063H99.9574C100.992 46.5063 101.851 46.7302 102.53 47.1724C103.215 47.6143 103.724 48.1736 104.064 48.8397C104.403 49.5054 104.573 50.2296 104.573 51.0073C104.573 51.7851 104.398 52.5093 104.058 53.1754C103.714 53.8411 103.199 54.4004 102.515 54.8427C101.83 55.2845 100.976 55.5083 99.9574 55.5083H98.8857V57.6764L98.8911 57.6871ZM98.8911 55.3484H99.9627C100.652 55.3484 101.225 55.1353 101.687 54.7095C102.149 54.2833 102.499 53.7504 102.732 53.1062C102.965 52.4615 103.082 51.7637 103.082 51.0127C103.082 50.2617 102.971 49.5585 102.743 48.9192C102.515 48.275 102.17 47.7421 101.698 47.3163C101.231 46.8901 100.652 46.677 99.9627 46.677H99.9254C99.7398 46.677 99.5806 46.6931 99.448 46.7248C99.3101 46.757 99.2038 46.8262 99.1242 46.9379C99.0446 47.0496 98.9863 47.2042 98.9494 47.4119C98.912 47.6143 98.896 47.8913 98.896 48.2375V55.3591L98.8911 55.3484Z" fill="#FFF8ED"/>
<path d="M108.287 57.6871C108.287 58.0704 108.319 58.3742 108.388 58.5976C108.457 58.8214 108.552 58.9921 108.674 59.1145C108.796 59.2369 108.945 59.3222 109.115 59.3754C109.284 59.4286 109.47 59.4607 109.666 59.4871H105.422C105.629 59.4607 105.82 59.4232 105.995 59.3754C106.17 59.3276 106.313 59.2423 106.43 59.1145C106.547 58.9921 106.637 58.8161 106.706 58.5976C106.775 58.3742 106.807 58.0704 106.807 57.6871V48.3067C106.807 47.9234 106.775 47.6196 106.706 47.3958C106.637 47.1724 106.547 47.0018 106.43 46.8794C106.313 46.757 106.17 46.6716 105.995 46.6185C105.82 46.5649 105.634 46.5331 105.422 46.5063H109.666C109.47 46.5331 109.284 46.5702 109.115 46.6185C108.945 46.6663 108.796 46.7516 108.674 46.8794C108.552 47.0018 108.457 47.1778 108.388 47.3958C108.319 47.6196 108.287 47.9234 108.287 48.3067V57.6871Z" fill="#FFF8ED"/>
<path d="M126.384 61.2129C125.965 61.3357 125.508 61.4367 125.015 61.5113C124.522 61.5859 124.007 61.6234 123.466 61.6234C122.877 61.6234 122.278 61.5699 121.673 61.4582C121.068 61.3465 120.49 61.1597 119.927 60.9042C119.365 60.6486 118.839 60.2971 118.346 59.8548C117.853 59.4179 117.423 58.8693 117.052 58.2143C116.585 57.3887 116.176 56.7334 115.826 56.2486C115.476 55.7639 115.11 55.5244 114.728 55.5244H113.656V57.6921C113.656 58.0758 113.688 58.3796 113.757 58.603C113.826 58.8268 113.921 58.9975 114.044 59.1199C114.165 59.2423 114.314 59.3276 114.484 59.3808C114.653 59.434 114.839 59.4661 115.036 59.4925H110.791C110.998 59.4661 111.189 59.4286 111.364 59.3808C111.539 59.333 111.682 59.2476 111.799 59.1199C111.916 58.9975 112.006 58.8215 112.075 58.603C112.144 58.3796 112.176 58.0758 112.176 57.6921V48.3121C112.176 47.9288 112.144 47.625 112.075 47.4012C112.006 47.1778 111.916 47.0072 111.799 46.8847C111.682 46.7623 111.539 46.677 111.364 46.6238C111.189 46.5702 111.003 46.5385 110.791 46.5117H114.722C115.71 46.5117 116.537 46.7141 117.206 47.1242C117.874 47.5343 118.389 48.0458 118.75 48.6744C119.11 49.303 119.301 49.9847 119.338 50.7304C119.375 51.476 119.254 52.1845 118.977 52.8453C118.702 53.5056 118.266 54.081 117.678 54.5711C117.089 55.0611 116.341 55.3591 115.444 55.4713C115.837 55.5191 116.187 55.6147 116.489 55.7482C116.792 55.8814 117.062 56.0623 117.311 56.2754C117.556 56.4939 117.784 56.7387 117.996 57.0157C118.208 57.2927 118.42 57.6072 118.643 57.9534C119.073 58.6191 119.535 59.173 120.028 59.6153C120.521 60.0572 121.025 60.4034 121.551 60.6643C122.076 60.9256 122.596 61.1066 123.121 61.2129C123.646 61.3197 124.145 61.3728 124.628 61.3728C124.962 61.3728 125.27 61.3514 125.562 61.309C125.848 61.2665 126.119 61.2133 126.363 61.149L126.384 61.2236V61.2129ZM113.661 55.3538H114.733C115.423 55.3538 115.996 55.1407 116.457 54.7145C116.919 54.2887 117.269 53.7558 117.503 53.1115C117.736 52.4669 117.853 51.7691 117.853 51.0181C117.853 50.2671 117.742 49.5639 117.513 48.9246C117.285 48.2804 116.94 47.7474 116.468 47.3212C116.001 46.8955 115.423 46.6824 114.733 46.6824H114.696C114.51 46.6824 114.351 46.698 114.218 46.7302C114.081 46.7623 113.974 46.8316 113.895 46.9433C113.815 47.055 113.757 47.2095 113.72 47.4173C113.683 47.6197 113.667 47.8966 113.667 48.2429V55.3645L113.661 55.3538Z" fill="#FFF8ED"/>
<path d="M128.602 59.4661V59.4871H120.532C120.739 59.4607 120.93 59.4232 121.105 59.3754C121.28 59.3276 121.424 59.2423 121.54 59.1145C121.657 58.9921 121.747 58.8161 121.816 58.5976C121.885 58.3742 121.917 58.0704 121.917 57.6871V48.3067C121.917 47.9234 121.885 47.6196 121.816 47.3958C121.747 47.1724 121.657 47.0018 121.54 46.8794C121.424 46.757 121.28 46.6716 121.105 46.6185C120.93 46.5649 120.744 46.5331 120.532 46.5063H128.379L128.915 49.6599C128.867 49.5107 128.793 49.2708 128.702 48.9353C128.613 48.5998 128.448 48.2696 128.214 47.9341C127.981 47.5982 127.652 47.3056 127.238 47.055C126.819 46.8048 126.251 46.677 125.541 46.677H123.397V52.5736H125.816C126.114 52.5736 126.347 52.5147 126.517 52.3976C126.686 52.2806 126.819 52.1367 126.915 51.9607C127.005 51.7905 127.074 51.5988 127.116 51.3964C127.159 51.1937 127.19 51.002 127.217 50.8318V54.4857C127.19 54.3151 127.159 54.1288 127.116 53.9318C127.074 53.7347 127.005 53.548 126.915 53.3671C126.824 53.1861 126.692 53.0423 126.517 52.9248C126.342 52.8077 126.108 52.7492 125.816 52.7492H123.397V57.772C123.397 58.1183 123.413 58.3952 123.445 58.5976C123.477 58.8 123.545 58.9599 123.657 59.072C123.768 59.1837 123.938 59.253 124.166 59.2847C124.395 59.3169 124.707 59.333 125.1 59.333H125.763C126.48 59.333 127.042 59.2052 127.461 58.9546C127.88 58.7044 128.204 58.406 128.437 58.0758C128.671 57.7403 128.835 57.4101 128.925 57.0742C129.016 56.7387 129.09 56.4992 129.138 56.35L128.602 59.4822V59.4661Z" fill="#FFF8ED"/>
<path d="M74.8252 79.0514C74.4164 79.0514 74.0663 78.9558 73.7798 78.7695C73.4933 78.5828 73.2918 78.3272 73.1802 77.9971L73.7851 77.6401C73.9551 78.1195 74.3105 78.359 74.8461 78.359C75.1117 78.359 75.3078 78.3058 75.4404 78.2048C75.573 78.0981 75.6366 77.9649 75.6366 77.8001C75.6366 77.6241 75.5676 77.4909 75.4244 77.4002C75.2812 77.31 75.032 77.2086 74.6659 77.0969C74.4693 77.0223 74.3052 76.9637 74.1775 76.9155C74.0503 76.8677 73.9177 76.7985 73.7745 76.7024C73.6312 76.6068 73.5303 76.4897 73.4613 76.3459C73.3924 76.202 73.3554 76.0368 73.3554 75.8451C73.3554 75.4667 73.488 75.1633 73.7585 74.9449C74.024 74.7211 74.3474 74.6094 74.7242 74.6094C75.0636 74.6094 75.3661 74.6943 75.621 74.8596C75.8755 75.0249 76.0716 75.259 76.2095 75.552L75.621 75.8929C75.4404 75.4935 75.1432 75.2965 74.7242 75.2965C74.5227 75.2965 74.3581 75.3443 74.2362 75.4403C74.1139 75.536 74.0556 75.6637 74.0556 75.829C74.0556 75.9943 74.1192 76.106 74.2415 76.1967C74.3634 76.287 74.5916 76.383 74.9204 76.479C75.0796 76.5376 75.1962 76.5854 75.2705 76.6122C75.3448 76.6385 75.4511 76.6814 75.589 76.7346C75.7269 76.7877 75.8332 76.8409 75.8968 76.8999C75.9604 76.9584 76.04 77.0276 76.1197 77.1179C76.1993 77.2032 76.2522 77.3046 76.2838 77.4163C76.3158 77.528 76.3319 77.6562 76.3319 77.7947C76.3319 78.1834 76.1939 78.4872 75.9128 78.7159C75.6366 78.9397 75.2705 79.0568 74.8198 79.0568L74.8252 79.0514Z" fill="#FFF8ED"/>
<path d="M82.0988 78.972L81.7963 78.1089H79.9818L79.6851 78.972H78.9262L80.4756 74.6895H81.3137L82.8524 78.972H82.0988ZM80.2154 77.4486H81.5685L80.8946 75.5151L80.2154 77.4486Z" fill="#FFF8ED"/>
<path d="M86.4493 78.3006H88.1842V78.972H85.7491V74.6895H86.4493V78.2952V78.3006Z" fill="#FFF8ED"/>
<path d="M94.4288 78.4072C93.9991 78.8387 93.4791 79.0514 92.8585 79.0514C92.2376 79.0514 91.7176 78.8387 91.2878 78.4072C90.8581 77.9756 90.6459 77.4538 90.6459 76.8306C90.6459 76.2074 90.8581 75.6852 91.2878 75.2536C91.7176 74.8225 92.2376 74.6094 92.8585 74.6094C93.4791 74.6094 93.9991 74.8225 94.4288 75.2536C94.8586 75.6852 95.0708 76.2074 95.0708 76.8306C95.0708 77.4538 94.8586 77.9756 94.4288 78.4072ZM91.7865 77.9278C92.0783 78.2205 92.4342 78.3643 92.8639 78.3643C93.2936 78.3643 93.649 78.2205 93.9408 77.9278C94.2327 77.6348 94.3759 77.2725 94.3759 76.8306C94.3759 76.3883 94.2327 76.026 93.9408 75.733C93.649 75.4403 93.2936 75.2965 92.8639 75.2965C92.4342 75.2965 92.0783 75.4403 91.7865 75.733C91.4947 76.026 91.3515 76.3883 91.3515 76.8306C91.3515 77.2725 91.4947 77.6348 91.7865 77.9278Z" fill="#FFF8ED"/>
<path d="M100.705 74.6943H101.406V78.9773H100.859L98.8484 76.0743V78.9773H98.1482V74.6943H98.6838L100.705 77.6187V74.6943Z" fill="#FFF8ED"/>
<path d="M112.155 78.7588L111.587 79.089L111.178 78.652C110.839 78.9183 110.446 79.0514 109.99 79.0514C109.534 79.0514 109.205 78.9397 108.934 78.7159C108.664 78.4921 108.531 78.1888 108.531 77.8001C108.531 77.5441 108.595 77.3046 108.722 77.0915C108.849 76.8784 109.035 76.7024 109.279 76.5693C109.115 76.3459 109.035 76.0953 109.035 75.8237C109.035 75.4667 109.162 75.1741 109.412 74.9503C109.661 74.7265 109.969 74.6147 110.335 74.6147C110.627 74.6147 110.892 74.6947 111.125 74.8489C111.359 75.0034 111.534 75.2219 111.651 75.5096L111.057 75.8505C110.998 75.6798 110.908 75.5467 110.781 75.4457C110.653 75.3443 110.51 75.2965 110.34 75.2965C110.17 75.2965 110.027 75.3443 109.911 75.4457C109.794 75.5467 109.735 75.6745 109.735 75.8397C109.735 75.9251 109.751 76.01 109.788 76.0953C109.826 76.1806 109.868 76.2499 109.911 76.303C109.953 76.3562 110.022 76.4255 110.107 76.5161L111.142 77.6455C111.242 77.4378 111.316 77.1925 111.359 76.8999L111.953 77.2407C111.879 77.5816 111.762 77.885 111.597 78.1463L112.15 78.7481L112.155 78.7588ZM110.027 78.3965C110.298 78.3965 110.531 78.3219 110.733 78.1673L109.688 77.0437C109.385 77.1925 109.237 77.427 109.237 77.7465C109.237 77.9489 109.306 78.1034 109.444 78.2259C109.581 78.3487 109.778 78.4019 110.027 78.4019V78.3965Z" fill="#FFF8ED"/>
<path d="M120.532 79.0514C120.123 79.0514 119.773 78.9558 119.487 78.7695C119.2 78.5828 118.999 78.3272 118.887 77.9971L119.492 77.6401C119.662 78.1195 120.017 78.359 120.553 78.359C120.819 78.359 121.015 78.3058 121.147 78.2048C121.28 78.0981 121.344 77.9649 121.344 77.8001C121.344 77.6241 121.275 77.4909 121.132 77.4002C120.988 77.31 120.739 77.2086 120.373 77.0969C120.177 77.0223 120.012 76.9637 119.885 76.9155C119.757 76.8677 119.625 76.7985 119.481 76.7024C119.338 76.6068 119.238 76.4897 119.169 76.3459C119.1 76.202 119.062 76.0368 119.062 75.8451C119.062 75.4667 119.195 75.1633 119.466 74.9449C119.731 74.7211 120.054 74.6094 120.431 74.6094C120.771 74.6094 121.073 74.6943 121.328 74.8596C121.582 75.0249 121.779 75.259 121.917 75.552L121.328 75.8929C121.147 75.4935 120.85 75.2965 120.431 75.2965C120.23 75.2965 120.065 75.3443 119.943 75.4403C119.821 75.536 119.763 75.6637 119.763 75.829C119.763 75.9943 119.827 76.106 119.948 76.1967C120.07 76.287 120.299 76.383 120.627 76.479C120.787 76.5376 120.904 76.5854 120.978 76.6122C121.052 76.6385 121.158 76.6814 121.296 76.7346C121.434 76.7877 121.54 76.8409 121.604 76.8999C121.667 76.9584 121.747 77.0276 121.827 77.1179C121.906 77.2032 121.959 77.3046 121.991 77.4163C122.023 77.528 122.039 77.6562 122.039 77.7947C122.039 78.1834 121.901 78.4872 121.62 78.7159C121.344 78.9397 120.978 79.0568 120.527 79.0568L120.532 79.0514Z" fill="#FFF8ED"/>
<path d="M126.623 74.6944C127.026 74.6944 127.36 74.8279 127.631 75.0996C127.901 75.3658 128.034 75.7014 128.034 76.1008C128.034 76.5002 127.901 76.8307 127.631 77.1024C127.36 77.374 127.026 77.5071 126.623 77.5071H125.753V78.972H125.052V74.6895H126.623V74.6944ZM126.623 76.8464C126.83 76.8464 127 76.7771 127.132 76.6333C127.265 76.4948 127.334 76.3139 127.334 76.1008C127.334 75.8877 127.265 75.7067 127.132 75.5682C127 75.4297 126.83 75.3551 126.623 75.3551H125.753V76.8464H126.623Z" fill="#FFF8ED"/>
<path d="M133.43 78.972L133.127 78.1089H131.313L131.016 78.972H130.257L131.806 74.6895H132.645L134.183 78.972H133.43ZM131.546 77.4486H132.899L132.225 75.5151L131.546 77.4486Z" fill="#FFF8ED"/>
<path d="M47.5174 41.6004C50.3932 41.6004 52.823 41.0732 54.7967 40.0238C56.7705 38.9692 58.2665 37.6535 59.2958 36.0715C60.3199 34.4842 60.8928 32.7424 61.0147 30.8408C61.1313 28.9392 60.7865 27.1495 59.98 25.461C59.1735 23.7778 57.9004 22.3237 56.1602 21.0932C54.7491 20.0972 53.0352 19.41 51.0191 19.0478C50.9288 19.0265 50.8386 19.0105 50.7487 18.9945C50.3772 18.9306 49.9898 18.8774 49.5921 18.8347C51.6081 18.4033 53.2474 17.631 54.5102 16.5177C55.7727 15.4098 56.6695 14.1527 57.2002 12.7412C57.7305 11.3349 57.9004 9.8808 57.7042 8.37338C57.5076 6.86596 56.9346 5.50235 55.9849 4.27191C55.0356 3.04147 53.7251 2.0241 52.0485 1.21446C50.3719 0.399492 48.3292 0 45.9257 0H31.9511C32.6249 0.0798985 33.235 0.197085 33.7868 0.351556C34.3439 0.511354 34.8055 0.788322 35.1822 1.18781C35.5536 1.58198 35.8506 2.13596 36.0735 2.84972C36.291 3.56881 36.3971 4.5329 36.3971 5.76334V35.8371C36.3971 37.0676 36.291 38.037 36.0735 38.7508C35.8506 39.4592 35.5589 40.0185 35.1822 40.418C34.8108 40.8122 34.3439 41.0892 33.7868 41.2488C33.235 41.4088 32.6249 41.5258 31.9511 41.6058H45.1566V46.9748H31.9511C32.6249 47.0548 33.235 47.1669 33.7868 47.3264C34.3439 47.4864 34.8055 47.7633 35.1822 48.1627C35.5536 48.5572 35.8506 49.1112 36.0735 49.8246C36.291 50.5439 36.3971 51.508 36.3971 52.7383V69.3999C35.076 69.8578 33.7391 70.087 32.3862 70.087C30.8582 70.087 29.3673 69.7886 27.9189 69.1975C26.4652 68.6011 25.1601 67.7009 24.0034 66.4915C22.8415 65.2826 21.9184 63.7431 21.2339 61.8895C20.5442 60.0356 20.1994 57.8733 20.1994 55.4068V26.1854C20.1994 25.0722 20.2737 24.1187 20.4169 23.3463C20.905 23.4795 21.4037 23.5807 21.9077 23.6446C23.3615 23.8257 24.8842 23.7352 26.3962 23.3197C27.903 22.9043 29.2612 22.2064 30.4337 21.2903C31.654 20.3475 32.6727 19.1703 33.442 17.8387L33.7444 17.3273L33.235 17.029C31.9193 16.278 30.4656 15.7826 28.9535 15.5908C27.4998 15.4044 25.9771 15.5003 24.465 15.9158C22.9582 16.3312 21.6001 17.029 20.4275 17.9399C20.21 18.105 20.0084 18.2808 19.8121 18.4566C20.141 17.8653 20.4275 17.2581 20.6769 16.6189C21.3613 14.8771 21.7433 12.9755 21.7433 10.9834C21.7433 8.99124 21.3613 7.08965 20.6769 5.34786C19.9712 3.5475 18.9207 1.91224 17.6262 0.532655L17.1222 0.00533179L16.6234 0.532655C15.3183 1.91224 14.2784 3.5475 13.5622 5.34786C12.8831 7.08965 12.5011 8.98592 12.5011 10.9834C12.5011 12.9808 12.8831 14.8824 13.5622 16.6189C13.8169 17.2581 14.1033 17.8653 14.4323 18.4566C14.236 18.2808 14.0238 18.105 13.8169 17.9399C12.6443 17.029 11.2808 16.3312 9.77403 15.9158C8.26726 15.5003 6.74991 15.4044 5.29088 15.5908C3.7735 15.7826 2.3251 16.278 1.00933 17.029L0.5 17.3273L0.802414 17.8387C1.57171 19.1703 2.58507 20.3475 3.80534 21.2903C4.98314 22.2064 6.34137 22.9043 7.84813 23.3197C9.3549 23.7352 10.8723 23.8257 12.3366 23.6446C12.9043 23.5701 13.4561 23.4582 14.0025 23.2984C14.1564 24.0814 14.2307 25.0455 14.2307 26.1854V55.4068C14.2307 58.1713 14.671 60.5949 15.5624 62.6669C16.4484 64.7443 17.6315 66.4755 19.1065 67.8604C20.5814 69.2399 22.2791 70.284 24.1997 70.9765C26.1203 71.6636 28.0674 72.0098 30.0358 72.0098C32.0042 72.0098 34.0097 71.6636 35.909 70.9765C36.0788 70.9126 36.2486 70.854 36.413 70.7794V82.8068C36.413 84.0372 36.3069 85.0066 36.0894 85.7205C35.8666 86.4291 35.5748 86.9884 35.1981 87.3878C34.8267 87.7818 34.3598 88.0588 33.8027 88.2187C33.2509 88.3783 32.6408 88.4957 31.967 88.5703H57.8368V88.5118L59.5556 78.4711C59.3964 78.9505 59.1686 79.7175 58.8768 80.7933C58.5796 81.8642 58.0543 82.9292 57.3061 84.0001C56.5529 85.0705 55.5129 86.0136 54.1704 86.8231C52.8283 87.638 51.0138 88.0374 48.7273 88.0374H46.5997C45.3314 88.0374 44.3394 87.9896 43.6072 87.8886C42.875 87.7925 42.3341 87.5634 41.9786 87.2064C41.6286 86.8499 41.4002 86.3491 41.2994 85.6937C41.2039 85.0388 41.1509 84.1596 41.1509 83.0517V67.6848C41.4002 67.4556 41.6388 67.2054 41.8563 66.9445H48.9022C49.8465 66.9445 50.5948 67.1308 51.1517 67.5088C51.7087 67.8818 52.1335 68.3612 52.4253 68.9366C52.7171 69.5116 52.9346 70.1138 53.0779 70.7526C53.2158 71.3866 53.3216 71.9834 53.4013 72.532V60.8241C53.3216 61.3834 53.2158 61.9852 53.0779 62.6405C52.9346 63.2955 52.722 63.8977 52.4253 64.457C52.1281 65.011 51.7037 65.4743 51.1517 65.8522C50.5948 66.236 49.8465 66.4223 48.9022 66.4223H42.3074C43.1828 65.3358 43.9257 64.0893 44.5463 62.6884C45.4591 60.611 45.8888 58.1874 45.8354 55.4282V47.5288H48.0107C50.2976 47.5288 52.1175 47.934 53.4595 48.7435C54.7967 49.5584 55.8417 50.4957 56.5952 51.5665C57.3434 52.6374 57.8634 53.7024 58.1602 54.7733C58.4627 55.8491 58.6855 56.6161 58.8448 57.0955L57.1259 46.9963H45.8305V41.6272H47.5334L47.5174 41.6004ZM45.1513 55.4018C45.1513 57.8201 44.7852 59.9453 44.0476 61.7774C43.3047 63.6046 42.3287 65.1388 41.1296 66.3745H41.1243V47.5078H45.1513V55.4068V55.4018ZM51.8043 20.8588C53.1677 21.9295 54.1971 23.2771 54.887 24.8964C55.5765 26.521 55.9213 28.2734 55.9213 30.159C55.9213 32.0446 55.5925 33.7917 54.94 35.4217C54.2874 37.0463 53.3003 38.3886 51.9849 39.4592C50.6584 40.5352 48.9925 41.0679 46.9818 41.0679H46.4511C46.2282 41.0679 46.016 41.0678 45.8092 41.0625V29.8927C45.8092 26.8353 46.3132 24.3105 47.3265 22.329C47.9418 21.1198 48.6793 20.2303 49.5334 19.6657C50.3772 19.932 51.1304 20.3315 51.799 20.8588H51.8043ZM45.1513 41.0412C44.488 41.0199 43.9417 40.972 43.4907 40.9081C42.7851 40.8122 42.2491 40.5831 41.8937 40.2263C41.5382 39.8747 41.3207 39.3687 41.2411 38.7135C41.1615 38.0583 41.1243 37.1794 41.1243 36.0715V19.5006C42.1166 20.0439 42.9547 20.992 43.6392 22.329C44.6473 24.3105 45.1513 26.8353 45.1513 29.8927V41.0465V41.0412ZM41.1243 18.7122V5.40647C41.1243 3.65935 41.2835 2.45555 41.6019 1.77907C41.915 1.10793 42.7211 0.692453 44.0263 0.532655H45.9791C47.597 0.532655 48.9342 0.974767 50.0058 1.86963C51.0721 2.76449 51.847 3.88307 52.3403 5.22536C52.8336 6.57298 53.0725 8.03779 53.0565 9.62513C53.0352 11.2071 52.7487 12.6719 52.1971 14.0195C51.645 15.3672 50.8439 16.4857 49.7989 17.3753C48.7482 18.2701 47.4591 18.7122 45.9257 18.7122H41.1296H41.1243Z" fill="#FFF8ED"/>
<path d="M73.9453 67.0488H128.532" stroke="#D5A571" stroke-width="0.8"/>
</g>
<defs>
<clipPath id="clip0_3_1895">
<rect width="153.5" height="88.6186" fill="white" transform="translate(0.5)"/>
</clipPath>
</defs>
</svg>
