<svg width="52" height="55" viewBox="0 0 52 55" fill="none" xmlns="http://www.w3.org/2000/svg">
<rect x="0.5" y="0.5" width="51" height="53.6337" rx="25.5" stroke="white" stroke-opacity="0.24"/>
<g clip-path="url(#clip0_1_1741)">
<path d="M23.7876 24.9123V24.0289C23.4844 23.9875 23.1767 23.9619 22.8627 23.9619C19.0788 23.9619 16 27.0407 16 30.8252C16 33.1472 17.1599 35.2018 18.9301 36.444C17.7878 35.2177 17.0872 33.5753 17.0872 31.771C17.0872 28.0411 20.0786 24.9992 23.7881 24.9123H23.7876Z" fill="#25F4EE"/>
<path d="M23.9494 34.9054C25.6378 34.9054 27.0151 33.5622 27.0776 31.8891L27.0838 16.9464H29.8134C29.7567 16.6393 29.7254 16.3236 29.7254 16H25.9972L25.9909 30.9427C25.9285 32.6158 24.5512 33.959 22.8627 33.959C22.3381 33.959 21.8436 33.8279 21.4088 33.5991C21.9782 34.3888 22.9036 34.9054 23.9494 34.9054Z" fill="#25F4EE"/>
<path d="M34.9128 22.018V21.1874C33.8716 21.1874 32.9013 20.878 32.0878 20.3472C32.8122 21.1789 33.7961 21.779 34.9128 22.018Z" fill="#25F4EE"/>
<path d="M32.0883 20.3471C31.2947 19.4359 30.8126 18.2465 30.8126 16.9458H29.814C30.0769 18.3663 30.9199 19.5852 32.0883 20.3471Z" fill="#FE2C55"/>
<path d="M22.8627 27.6907C21.1346 27.6907 19.7283 29.097 19.7283 30.8252C19.7283 32.0288 20.4113 33.0745 21.4088 33.5991C21.0369 33.0836 20.8155 32.4534 20.8155 31.771C20.8155 30.0428 22.2218 28.6366 23.9499 28.6366C24.2724 28.6366 24.5818 28.6899 24.8748 28.7813V24.9747C24.5716 24.9333 24.2639 24.9077 23.9499 24.9077C23.8954 24.9077 23.8421 24.9106 23.7881 24.9117V27.8349C23.4952 27.7435 23.1858 27.6902 22.8633 27.6902L22.8627 27.6907Z" fill="#FE2C55"/>
<path d="M34.9128 22.0178V24.9155C32.9797 24.9155 31.1879 24.2973 29.7254 23.2475V30.825C29.7254 34.6095 26.6466 37.6877 22.8627 37.6877C21.4003 37.6877 20.0445 37.2267 18.9295 36.4438C20.183 37.7899 21.9691 38.6336 23.9494 38.6336C27.7339 38.6336 30.8121 35.5548 30.8121 31.7709V24.1939C32.2746 25.2437 34.0663 25.8619 35.9994 25.8619V22.1331C35.6264 22.1331 35.2631 22.0928 34.9128 22.0178Z" fill="#FE2C55"/>
<path d="M29.7254 30.8251V23.2476C31.1879 24.2973 32.9797 24.9156 34.9128 24.9156V22.0179C33.7961 21.7789 32.8122 21.1794 32.0878 20.3471C30.9194 19.5852 30.0763 18.3668 29.8134 16.9458H27.0838L27.0776 31.8885C27.0151 33.5616 25.6378 34.9048 23.9494 34.9048C22.9036 34.9048 21.9782 34.3882 21.4088 33.5985C20.4113 33.0733 19.7283 32.0276 19.7283 30.8245C19.7283 29.0964 21.1346 27.6901 22.8627 27.6901C23.1852 27.6901 23.4946 27.7435 23.7876 27.8349V24.9116C20.078 24.9985 17.0866 28.0404 17.0866 31.7704C17.0866 33.5746 17.7872 35.2171 18.9295 36.4434C20.0439 37.2257 21.4003 37.6873 22.8627 37.6873C26.6466 37.6873 29.7254 34.6085 29.7254 30.8245V30.8251Z" fill="white"/>
</g>
<defs>
<clipPath id="clip0_1_1741">
<rect width="20" height="22.6337" fill="white" transform="translate(16 16)"/>
</clipPath>
</defs>
</svg>
